IKResults
version=1
nRows=4
nColumns=63
inDegrees=yes

Units are S.I. units (second, meters, Newtons, ...)
If the header above contains a line with 'inDegrees', this indicates whether rotational values are in degrees (yes) or radians (no).

endheader
time	pelvis_tilt	pelvis_list	pelvis_rotation	pelvis_tx	pelvis_ty	pelvis_tz	hip_flexion_r	hip_adduction_r	hip_rotation_r	knee_angle_r	knee_angle_r_beta	ankle_angle_r	subtalar_angle_r	mtp_angle_r	hip_flexion_l	hip_adduction_l	hip_rotation_l	knee_angle_l	knee_angle_l_beta	ankle_angle_l	subtalar_angle_l	mtp_angle_l	L5_S1_Flex_Ext	L5_S1_Lat_Bending	L5_S1_axial_rotation	L4_L5_Flex_Ext	L4_L5_Lat_Bending	L4_L5_axial_rotation	L3_L4_Flex_Ext	L3_L4_Lat_Bending	L3_L4_axial_rotation	L2_L3_Flex_Ext	L2_L3_Lat_Bending	L2_L3_axial_rotation	L1_L2_Flex_Ext	L1_L2_Lat_Bending	L1_L2_axial_rotation	L1_T12_Flex_Ext	L1_T12_Lat_Bending	L1_T12_axial_rotation	Abs_r3	Abs_r2	Abs_r1	Abs_t1	Abs_t2	neck_flexion	neck_bending	neck_rotation	arm_flex_r	arm_add_r	arm_rot_r	elbow_flex_r	pro_sup_r	wrist_flex_r	wrist_dev_r	arm_flex_l	arm_add_l	arm_rot_l	elbow_flex_l	pro_sup_l	wrist_flex_l	wrist_dev_l
      4.03333333	    -86.51454218	    -25.45139750	     -2.87519735	     -0.81803761	      0.49450551	     -0.00751967	    149.89196551	    -12.91216992	      2.68045810	    102.25925241	      1.78476065	     40.70727356	     -6.87217429	      0.00000000	    148.30732525	    -29.47000520	      6.11702517	    103.88456169	      1.81312764	     45.76057186	     -6.05500893	      0.00000000	     11.90813238	      0.68304027	     -0.65442740	     22.11459264	      0.90844355	     -0.69532911	     19.56387068	      1.66074410	     -0.69532911	     13.60980449	      1.66074410	     -0.57262398	     11.05789173	      1.39285571	     -0.53172226	      6.80430684	      1.05802937	     -0.49082055	     85.05859876	      7.72668809	     -3.63972888	      0.00000000	      0.00000000	      8.02088446	     -4.48831408	      6.92429020	    -34.18524316	    -10.86517891	    -14.94808165	    110.25335735	     89.99559364	      0.00000000	      0.00000000	    -33.62889225	    -12.53062860	    -20.38154303	    111.26792536	     89.99559364	      0.00000000	      0.00000000
      4.06666667	    -86.67457828	    -25.55221734	     -2.94612726	     -0.81819470	      0.49491263	     -0.00772779	    149.89401678	    -12.99341136	      2.60816940	    102.05928746	      1.78127060	     40.77862133	     -6.98656943	      0.00000000	    148.35257190	    -29.41512497	      6.03610799	    103.73276078	      1.81047822	     46.03591257	     -5.77768691	      0.00000000	     11.93342075	      0.69871975	     -0.66299502	     22.16155567	      0.92929727	     -0.70443221	     19.60541695	      1.69886720	     -0.70443221	     13.63870657	      1.69886720	     -0.58012064	     11.08137451	      1.42482932	     -0.53868345	      6.81875662	      1.08231690	     -0.49724627	     85.23923106	      7.90405758	     -3.68737941	      0.00000000	      0.00000000	      8.14978431	     -4.57674321	      7.02931209	    -34.39020768	    -10.96238889	    -15.00993887	    110.35329286	     89.99559364	      0.00000000	      0.00000000	    -33.66719263	    -12.37214808	    -20.36876618	    111.08383546	     89.99559364	      0.00000000	      0.00000000
      4.10000000	    -86.60246111	    -25.55193016	     -2.94293908	     -0.81848174	      0.49489579	     -0.00761396	    149.88840137	    -12.98994011	      2.58183553	    102.02666431	      1.78070122	     40.84879543	     -7.01409494	      0.00000000	    148.36460196	    -29.42429450	      6.05758052	    103.76662539	      1.81106927	     46.10214257	     -5.74842041	      0.00000000	     11.91974615	      0.70509374	     -0.66171211	     22.13616058	      0.93777468	     -0.70306912	     19.58295095	      1.71436492	     -0.70306912	     13.62307788	      1.71436492	     -0.57899810	     11.06867628	      1.43782716	     -0.53764109	      6.81094295	      1.09219021	     -0.49628409	     85.14155478	      7.97616142	     -3.68024426	      0.00000000	      0.00000000	      8.13861700	     -4.59246717	      7.04619758	    -34.41221271	    -10.99235078	    -15.02821113	    110.34360679	     89.99559364	      0.00000000	      0.00000000	    -33.65492467	    -12.33430914	    -20.35546995	    111.04373444	     89.99559364	      0.00000000	      0.00000000
      4.13333333	    -86.56825399	    -25.55639903	     -2.94102955	     -0.81885309	      0.49495032	     -0.00755597	    149.88593093	    -12.98177274	      2.58593372	    101.95577751	      1.77946401	     40.89282936	     -7.04900135	      0.00000000	    148.39324827	    -29.41234803	      6.04628408	    103.78098762	      1.81131993	     46.18070331	     -5.71166401	      0.00000000	     11.91042655	      0.71117545	     -0.66149199	     22.11885315	      0.94586335	     -0.70283523	     19.56763978	      1.72915198	     -0.70283523	     13.61242651	      1.72915198	     -0.57880549	     11.06002210	      1.45022897	     -0.53746224	      6.80561773	      1.10161077	     -0.49611899	     85.07498581	      8.04495890	     -3.67901998	      0.00000000	      0.00000000	      8.17777084	     -4.60567092	      7.07223052	    -34.46128436	    -11.03950387	    -15.05078898	    110.34448423	     89.99559364	      0.00000000	      0.00000000	    -33.62016266	    -12.28470196	    -20.34550522	    111.00214701	     89.99559364	      0.00000000	      0.00000000
